<?xml version="1.0" standalone="no"?><!DOCTYPE svg PUBLIC "-//W3C//DTD SVG 1.1//EN" "http://www.w3.org/Graphics/SVG/1.1/DTD/svg11.dtd"><svg t="1575981441534" class="icon" viewBox="0 0 1024 1024" version="1.1" xmlns="http://www.w3.org/2000/svg" p-id="1819" xmlns:xlink="http://www.w3.org/1999/xlink" width="200" height="200"><defs><style type="text/css"></style></defs><path d="M957.610667 956.700444a29.866667 29.866667 0 0 1-41.642667 0l-235.690667-231.651555a385.137778 385.137778 0 0 1-240.810666 83.968C228.124444 808.96 56.888889 640.568889 56.888889 432.924444 56.888889 225.28 228.124444 56.888889 439.466667 56.888889c211.285333 0 382.577778 168.391111 382.577777 376.035555a370.631111 370.631111 0 0 1-99.271111 252.017778l234.837334 230.855111a28.615111 28.615111 0 0 1 0 40.96z m-518.144-841.955555c-178.744889 0-323.754667 142.506667-323.754667 318.179555 0 175.786667 145.009778 318.179556 323.697778 318.179556 178.858667 0 323.811556-142.449778 323.811555-318.179556 0-175.672889-144.952889-318.122667-323.754666-318.122666z" fill="#999999" p-id="1820"></path></svg>